<svg width="55" height="55" viewBox="0 0 55 55" fill="none" xmlns="http://www.w3.org/2000/svg">
    <path
        d="M27.4999 4.5835C14.8499 4.5835 4.58325 14.8502 4.58325 27.5002C4.58325 40.1502 14.8499 50.4168 27.4999 50.4168C40.1499 50.4168 50.4166 40.1502 50.4166 27.5002C50.4166 14.8502 40.1499 4.5835 27.4999 4.5835ZM21.2895 37.3314L13.0624 29.1043C12.1687 28.2106 12.1687 26.7668 13.0624 25.8731C13.9562 24.9793 15.3999 24.9793 16.2937 25.8731L22.9166 32.4731L38.6832 16.7064C39.577 15.8127 41.0208 15.8127 41.9145 16.7064C42.8083 17.6002 42.8083 19.0439 41.9145 19.9377L24.5208 37.3314C23.6499 38.2252 22.1833 38.2252 21.2895 37.3314Z"
        fill="currentColor" />
</svg>