<?xml version="1.0" encoding="UTF-8"?>
<!-- Generator: Adobe Illustrator 28.0.0, SVG Export Plug-In . SVG Version: 6.00 Build 0)  -->
<svg xmlns="http://www.w3.org/2000/svg" xmlns:xlink="http://www.w3.org/1999/xlink" version="1.1" id="Layer_1" x="0px" y="0px" width="372px" height="76.6px" viewBox="0 0 372 76.6" xml:space="preserve">
<g>
	<g>
		<g>
			<polygon fill="#1762BD" points="366.3,19.7 366.3,20.1 364.9,20.1 364.9,23.9 364.5,23.9 364.5,20.1 363,20.1 363,19.7    "></polygon>
			<polygon fill="#1762BD" points="367.3,19.7 368.7,23.4 370.1,19.7 370.7,19.7 370.7,23.9 370.3,23.9 370.3,20.3 370.3,20.3      368.9,23.9 368.5,23.9 367.1,20.3 367.1,20.3 367.1,23.9 366.7,23.9 366.7,19.7    "></polygon>
		</g>
	</g>
</g>
<path fill="#1762BD" d="M49.4,73.4C21.1,81.4-4.4,56,3.7,27.6C7,15.9,16.3,6.6,28.1,3.2C56.4-4.8,81.9,20.6,73.8,49  C70.5,60.7,61.2,70,49.4,73.4z M41.4,6.3C21.6,4.7,5.1,21.2,6.7,40.9C8,56.5,20.6,69.1,36.1,70.3c19.8,1.6,36.2-14.9,34.6-34.6  C69.5,20.1,56.9,7.5,41.4,6.3z"></path>
<path fill="#EB1B2E" d="M53.2,46.9c0-5.8-3-9.9-6.6-16.3c-4.8-8.5-7.8-16.7-7.8-16.7l0,0l0,0c0,0-2.4,7.3-7.7,16.6  c-1.8,3.2-6.6,10.5-6.6,16.3c0,5,4.2,14.1,14.3,14.1l0,0c0,0,0,0,0,0s0,0,0,0l0,0C48.9,60.9,53.2,51.9,53.2,46.9z"></path>
<polygon fill="#1762BD" points="333.6,19.7 333.6,23.9 344.8,23.9 344.8,57.3 349,57.3 349,23.9 360.3,23.9 360.3,19.7 "></polygon>
<polygon fill="#1762BD" points="325.9,47.8 301.7,19.8 301.6,19.7 300.5,19.7 300.5,57.3 304.8,57.3 304.8,29.6 328.9,57.2   328.9,57.3 330.1,57.3 330.1,19.7 325.9,19.7 "></polygon>
<path fill="#1762BD" d="M182.8,19.7h-1.2L164,56.9l-0.2,0.4h4.6l5.6-12.2h15.6l5.9,12.2h4.4l-17.4-37.4L182.8,19.7z M187.9,41h-11.8  l5.9-12.6L187.9,41z"></path>
<path fill="#1762BD" d="M279.9,19.7h-1.2l-17.6,37.2l-0.2,0.4h4.6l5.8-12.2H287l5.7,12l0.1,0.1h4.5l-17.4-37.4L279.9,19.7z   M285.1,41h-11.9l6-12.6L285.1,41z"></path>
<path fill="#1762BD" d="M259.8,27.7L259.8,27.7c-2-3-4.9-5.3-8.6-6.7c-2.8-0.9-6.8-1.3-12.1-1.3h-8v37.5h12.1  c4.6,0,8.2-0.7,10.9-2.1c2.6-1.2,4.7-3.4,6.2-6.3c1.7-2.9,2.5-6.2,2.5-9.8C262.8,34.8,261.8,31,259.8,27.7z M258.5,39.1  c0,3.5-0.8,6.2-2.3,8.5c-1.5,2.3-3.7,3.9-6.4,4.7c-2,0.7-5.3,1-10.6,1h-4.1V23.9h2.4c4.9,0,8.9,0.4,11.4,1c3,0.9,5.3,2.6,7,5.1  C257.7,32.5,258.5,35.5,258.5,39.1z"></path>
<path fill="#1762BD" d="M115.3,43h11.8c-0.6,3.4-2.1,6-4.6,8c-2.5,2.1-5.7,3.2-9.6,3.2c-3,0-5.9-0.7-8.5-2.1c-2.6-1.4-4.6-3.3-6-5.8  c-1.5-2.5-2.2-5.1-2.2-7.9c0-2.7,0.7-5.2,2-7.5c1.5-2.5,3.6-4.4,6.2-5.8c2.5-1.4,5.2-2.1,8.1-2.1c2.2,0,4.7,0.5,7.2,1.5  c2.5,1.1,4.7,2.7,6.7,4.7l0.2,0.2l3.2-3.1l-0.2-0.2c-2.7-2.4-5.5-4.3-8.2-5.5c-3.1-1.2-5.9-1.8-9.1-1.8c-3.8,0-7.3,0.9-10.4,2.7  c-3,1.6-5.5,4-7.3,7.1c-1.8,3-2.7,6.3-2.7,10c0,4.8,1.5,8.9,4.7,12.7c4.1,4.7,9.5,7,16.4,7c5.6,0,10.2-1.7,13.8-5.1  c3.4-3.5,5.1-8.2,5.1-13.9V39h-16.5C115.3,39,115.3,43,115.3,43z"></path>
<path fill="#1762BD" d="M157.6,51c-1.8,2.1-4.8,3.4-7.8,3.4c-2.6,0-6.1-1.1-8-3.7c-1.8-2.3-1.7-5.4-1.7-8.1v-0.4V19.7h-4.2v23.6  c0,4,0.3,7.7,3.8,10.9c2.5,2.4,6.3,3.8,10.1,3.8c4,0,7.9-1.6,10.5-4.3c3.2-3.2,3.4-6.5,3.4-10.5V19.7h-4.2v23  C159.6,45.5,159.6,48.7,157.6,51z"></path>
<g>
	<path fill="#1762BD" d="M213.9,40.1c0.2,0,0.1,0,0.2,0c0,0,0.1,0,0.1,0c2.6-0.1,4.6-0.5,6.2-1.2c1.7-0.7,3.2-2,4.3-3.6   c0.9-1.4,1.4-3.2,1.4-5.4c0-2.5-0.7-4.6-2.1-6.3c-1.4-1.7-3.2-2.8-5.5-3.4c-1.7-0.3-4.6-0.5-8.4-0.5h-7.6v37.5h4.3V40.1h2   l12.9,17.1l0.1,0.1h5.1L213.9,40.1z M206.8,36L206.8,36L206.8,36V23.9h6.1c2.6,0,4.5,0.2,5.4,0.6c1.2,0.5,1.9,1.2,2.6,2.2   c0.6,0.9,1,2.1,1,3.2c0,1.1-0.3,2.1-1,3.3c-0.6,1-1.4,1.7-2.6,2.1c-1.2,0.5-2.8,0.7-5.3,0.7l-0.8,0H206.8z"></path>
</g>
</svg>
