<svg xmlns="http://www.w3.org/2000/svg" width="116.72" height="97.77" viewBox="0 0 116.72 97.77"><g fill="#d12032"><path d="M1.11 51.95c.12.6.24 1.2.35 1.8 18.55 2.7 36.42 12.46 51.96 22.44 15.83 9.9 29.54 20.1 46.29 21.57 1.35-3.98 2.69-7.96 4.04-11.95-18.19.33-32.98-7.79-49.45-15.84C37.97 61.8 19.78 53.62 1.12 51.95M0 46.19c.11.59.23 1.19.34 1.78 18.95-.62 37.87 4.07 56.07 8.29 17.93 3.96 35.11 7.45 56.28 3.05 1.34-3.98 2.68-7.97 4.02-11.95-22.43 6.26-40.69 4.88-59.29 2.75C38.37 47.68 19.1 44.56 0 46.19"/><path d="M.55 49.06c.12.6.23 1.19.35 1.79 18.74 1.04 37.12 8.26 53.97 15.35 16.86 6.93 32.31 13.77 51.35 12.34 1.35-3.98 2.69-7.97 4.03-11.95-20.38 3.27-36.9-1.49-54.43-6.57-17.68-5.3-36.4-10.94-55.27-10.95"/></g><path d="M45.08 26.72c.67-.3 1.4-.45 2.13-.45.97-.01 1.93.18 2.81.58.83.37 1.58.9 2.22 1.55a7.06 7.06 0 0 1 1.47 2.3c.35.9.53 1.86.52 2.83 0 .97-.18 1.93-.54 2.83a6.92 6.92 0 0 1-1.52 2.32c-.66.67-1.45 1.21-2.32 1.57-.93.39-1.94.59-2.95.58-.82.02-1.64-.13-2.41-.42-.64-.25-1.25-.6-1.78-1.03-.45-.36-.83-.81-1.12-1.31-.23-.38-.36-.81-.39-1.26 0-.26.09-.51.26-.7.18-.21.44-.33.72-.32.28-.02.56.08.77.26.19.18.35.39.47.63.13.25.25.52.38.82.12.3.3.58.51.82.24.27.53.48.85.63.46.19.95.28 1.45.26.46 0 .92-.15 1.29-.42.43-.31.78-.72 1.03-1.19.31-.56.54-1.17.68-1.8.17-.75.25-1.52.24-2.29.07-1.4-.25-2.79-.93-4.02a2.703 2.703 0 0 0-2.32-1.5c-.35 0-.69.04-1.03.12-.32.09-.62.24-.87.45-.31.27-.57.59-.77.94-.29.51-.52 1.06-.68 1.62h-1.57l1.08-11.98h6.04c.64.01 1.28-.04 1.9-.16.41-.08.79-.24 1.14-.47.28-.21.49-.49.61-.82.15-.39.27-.8.37-1.2h.98l-.84 6.57h-8.87l-.52 4.71c.39-.49.91-.86 1.5-1.08M65.2 21.51c-1.34 0-2.62.55-3.54 1.52-.46.48-.82 1.04-1.08 1.66-.54 1.3-.54 2.75 0 4.05.26.61.63 1.18 1.08 1.66a4.887 4.887 0 0 0 6.92.16c.06-.05.11-.11.16-.16.46-.48.83-1.04 1.08-1.66.54-1.3.54-2.75 0-4.05-.26-.61-.63-1.18-1.08-1.66-.92-.97-2.2-1.52-3.54-1.52m0-2.93c1.09 0 2.16.21 3.16.65 1.95.83 3.5 2.38 4.33 4.33.43 1 .65 2.07.65 3.16 0 1.09-.21 2.17-.65 3.18a8.157 8.157 0 0 1-4.33 4.35c-2.02.86-4.3.86-6.32 0a8.157 8.157 0 0 1-4.33-4.35c-.43-1-.65-2.09-.65-3.18 0-1.09.21-2.16.65-3.16.83-1.95 2.38-3.5 4.33-4.33 1-.43 2.07-.65 3.16-.65M85.8 22.62l1.08 3.31h3.48l-2.81 2.04 1.08 3.31-2.82-2.04L83 31.28l1.08-3.31-2.82-2.04h3.48l1.07-3.31ZM28.73 22.62l1.08 3.31h3.48l-2.81 2.04 1.08 3.31-2.81-2.04-2.82 2.04 1.08-3.31-2.81-2.04h3.48l1.07-3.31ZM8.49 9.75a1.84 1.84 0 0 0 1.09-1.16c.17-.55.17-1.14 0-1.68a1.84 1.84 0 0 0-.4-.69c-.2-.2-.43-.36-.69-.47-.31-.12-.64-.18-.97-.17H5.97v2.41c0 .33.02.67.06 1 .02.21.11.41.23.58.13.15.31.25.51.28.29.05.58.07.87.07h-.12c.33 0 .66-.05.97-.17M5.97 4.8h.97a1.8 1.8 0 0 0 1.44-.55c.31-.36.48-.83.47-1.31 0-.24-.04-.49-.11-.72a1.582 1.582 0 0 0-.95-1c-.27-.1-.56-.15-.85-.15h-.97V4.8Zm3.92.24c.63.17 1.19.54 1.59 1.06.37.48.57 1.07.56 1.68 0 .39-.08.78-.24 1.14-.17.36-.41.67-.71.93-.32.28-.7.49-1.1.62-.47.16-.96.23-1.46.23H2.16v-.51c.29 0 .58-.02.87-.07.2-.03.38-.14.51-.3.13-.18.21-.4.23-.62.04-.35.06-.69.05-1.04V2.83c0-.35-.01-.7-.05-1.05-.02-.22-.1-.43-.23-.62a.866.866 0 0 0-.51-.3C2.74.81 2.45.78 2.16.79v-.5h5.9c.44 0 .88.06 1.29.21.36.12.7.31.99.56.27.22.48.51.63.82.14.32.22.66.22 1.01 0 .44-.11.87-.34 1.24-.23.38-.56.69-.95.91M14.08 10.71v-.51c.29 0 .58-.02.87-.07.2-.03.38-.14.51-.3.13-.19.21-.4.23-.63.04-.35.06-.69.05-1.04V2.83c0-.35-.01-.7-.05-1.05-.02-.22-.1-.43-.23-.62a.866.866 0 0 0-.51-.3c-.29-.05-.58-.08-.87-.07v-.5h5.48V.8c-.29 0-.58.02-.87.07-.2.03-.38.14-.51.3-.13.18-.21.39-.23.62-.05.35-.07.7-.06 1.05v5.34c0 .35.02.7.06 1.04.02.22.1.44.23.63.13.16.31.26.51.3.29.05.58.07.87.07v.51h-5.48ZM23.35 1.78c-.02-.22-.1-.43-.23-.62a.866.866 0 0 0-.51-.3c-.29-.05-.58-.08-.87-.07v-.5h5.48V.8c-.29 0-.58.02-.87.07-.2.03-.38.14-.51.3-.13.18-.21.39-.23.62-.05.35-.07.7-.06 1.05V7.9c0 .35.01.7.06 1.04.02.22.1.44.23.62.13.16.31.26.51.3.29.05.58.07.87.07h2c.32 0 .65-.02.96-.08.2-.04.4-.12.56-.23.14-.1.24-.24.3-.4.07-.2.13-.4.18-.6l.09-.35h.51l-.14 2.45h-9.94v-.51c.29 0 .58-.02.87-.07.2-.03.38-.14.51-.3.13-.18.21-.4.23-.62.04-.35.06-.69.05-1.04V2.83c0-.35-.01-.7-.05-1.05M35.2 1.78c-.02-.22-.1-.43-.23-.62a.866.866 0 0 0-.51-.3c-.29-.05-.58-.08-.87-.07v-.5h5.48V.8c-.29 0-.58.02-.87.07-.2.03-.38.14-.51.3-.13.18-.21.39-.23.62-.05.35-.07.7-.06 1.05V7.9c0 .35.02.7.06 1.04.02.22.1.44.23.62.13.16.31.26.51.3.29.05.58.07.87.07h2c.32 0 .65-.02.96-.08.2-.04.4-.12.56-.23.14-.1.24-.24.3-.4.07-.2.13-.4.18-.6l.09-.35h.51l-.14 2.45h-9.94v-.51c.29 0 .58-.02.87-.07.2-.03.38-.14.51-.3.13-.18.21-.4.23-.62.04-.35.06-.69.05-1.04V2.83c0-.35-.01-.7-.05-1.05M60.69 2.74h-.51l-.09-.35c-.05-.2-.11-.4-.18-.6a.923.923 0 0 0-.3-.4c-.17-.12-.36-.2-.56-.23-.32-.06-.64-.08-.96-.08h-1.74v7.1c0 .35.02.7.06 1.04.02.22.11.44.23.62.13.16.31.26.51.3.29.05.58.07.87.07v.51h-5.48v-.51c.29 0 .58-.02.87-.07.2-.03.38-.14.51-.3.13-.18.21-.4.23-.62.04-.35.06-.69.05-1.04v-7.1h-1.74c-.32 0-.63.02-.95.08-.2.04-.39.12-.56.23-.14.1-.24.24-.3.4-.07.2-.13.4-.18.6l-.09.35h-.52l.16-2.45h10.55l.14 2.45ZM69.17 4.49c.36-.39.56-.9.55-1.43.01-.52-.18-1.04-.55-1.43-.44-.43-1.05-.65-1.68-.6h-.95v4.06h.95c.62.05 1.24-.17 1.68-.59m1.48 3.07c.38.39.72.72 1.01.98.25.23.52.43.8.62.22.15.46.26.71.34.24.07.49.13.74.16v.48h-3.77l-3.09-4.31h-.51v1.92c0 .33.01.66.06.98.02.21.11.42.24.59.13.15.31.25.51.28.29.05.58.07.87.06v.48h-5.48v-.48c.29 0 .58-.02.87-.06.2-.03.38-.13.51-.28.13-.18.21-.38.23-.59.04-.33.06-.65.05-.98V2.69c0-.33-.01-.66-.05-.99-.02-.21-.1-.41-.23-.58a.838.838 0 0 0-.51-.28c-.29-.05-.58-.07-.87-.07V.3h5.81c.5 0 .99.07 1.46.22.4.13.78.34 1.1.6.3.24.54.54.71.88.16.34.25.7.24 1.07.01.7-.29 1.37-.82 1.85-.61.54-1.41.86-2.25.9l1.67 1.74ZM79.72 3.27l-1.37 3.18h2.76l-1.39-3.18Zm-2.43 5.61c-.2.46-.21.8-.03 1.01s.62.31 1.34.31v.51h-4.2v-.51c.26 0 .51-.02.76-.07.2-.04.38-.12.55-.23.17-.12.31-.28.43-.46.15-.24.29-.5.4-.76L80.31 0h.36l3.78 8.68c.13.28.24.51.35.71.09.18.22.34.37.47.16.13.35.22.55.27.28.06.56.09.85.09v.51h-5.69v-.51c.3 0 .61-.02.9-.08.18-.03.34-.11.47-.23.09-.11.14-.26.11-.4a2.08 2.08 0 0 0-.18-.6l-.73-1.65h-3.44l-.72 1.64ZM96.22 10.52c-.06-.21-.12-.4-.18-.59a.796.796 0 0 0-.27-.4c-.42.45-.93.82-1.48 1.08-.55.26-1.14.39-1.75.39-.71 0-1.42-.14-2.07-.43a5.524 5.524 0 0 1-3.26-5.07c0-.73.14-1.46.42-2.14A5.415 5.415 0 0 1 90.48.43c.65-.29 1.35-.44 2.07-.43.6 0 1.2.13 1.75.38a4.7 4.7 0 0 1 1.48 1.09c.12-.11.22-.24.27-.4.06-.17.12-.37.18-.59h.49V4.3h-.51a4.63 4.63 0 0 0-1.33-2.59c-.61-.57-1.42-.89-2.27-.89-.52-.02-1.04.13-1.47.43-.4.29-.72.67-.95 1.1a5.3 5.3 0 0 0-.5 1.5 9.968 9.968 0 0 0 0 3.27c.08.53.25 1.04.5 1.51.22.44.55.81.95 1.1.43.3.95.44 1.47.43.84 0 1.66-.32 2.27-.9a4.67 4.67 0 0 0 1.33-2.57h.51v3.82h-.49ZM110.38 9.18c.16.16.34.3.54.42s.41.23.63.32c.2.08.4.15.61.21.15.05.3.07.46.08v.51h-5.76v-.51c.32.04.65-.05.91-.24.16-.16.07-.42-.27-.78l-3.42-3.71-.75.61v2.1c0 .35.02.7.06 1.04.02.22.1.44.23.62.13.16.31.26.51.3.29.05.58.08.87.07v.51h-5.48v-.51c.29 0 .58-.02.87-.07.2-.03.38-.14.51-.3.13-.18.21-.4.23-.62.04-.35.06-.69.05-1.04V2.83c0-.35-.01-.7-.05-1.05-.02-.22-.1-.43-.23-.62a.866.866 0 0 0-.51-.3c-.29-.05-.58-.07-.87-.07v-.5H105V.8c-.29 0-.58.02-.87.07-.2.03-.38.14-.51.3-.13.18-.21.39-.23.62-.05.35-.07.7-.06 1.05v2.32l3.64-2.93c.1-.09.23-.22.39-.37.14-.14.26-.29.35-.47.07-.13.07-.28 0-.4-.08-.12-.3-.17-.66-.17V.29h4.18V.8c-.32 0-.64.03-.95.09-.27.06-.53.15-.77.28-.25.13-.48.28-.71.44-.23.17-.49.38-.76.61l-2.46 1.98 4.81 4.98Z" fill="#001e40"/></svg>