<svg width="7736" height="1765" viewBox="0 0 7736 1765" fill="none" xmlns="http://www.w3.org/2000/svg">
<path d="M1984.65 1469.05C1909.51 1469.05 1840.51 1451.42 1777.65 1416.15C1714.78 1380.88 1664.95 1332.2 1628.15 1270.1C1591.35 1207.23 1572.95 1136.32 1572.95 1057.35C1572.95 979.15 1591.35 909 1628.15 846.9C1664.95 784.033 1714.78 734.967 1777.65 699.7C1840.51 664.433 1909.51 646.8 1984.65 646.8C2060.55 646.8 2129.55 664.433 2191.65 699.7C2254.51 734.967 2303.96 784.033 2340 846.9C2376.8 909 2395.2 979.15 2395.2 1057.35C2395.2 1136.32 2376.8 1207.23 2340 1270.1C2303.96 1332.2 2254.51 1380.88 2191.65 1416.15C2128.78 1451.42 2059.78 1469.05 1984.65 1469.05ZM1984.65 1325.3C2032.95 1325.3 2075.5 1314.57 2112.3 1293.1C2149.1 1270.87 2177.85 1239.43 2198.55 1198.8C2219.25 1158.17 2229.6 1111.02 2229.6 1057.35C2229.6 1003.68 2219.25 956.917 2198.55 917.05C2177.85 876.417 2149.1 845.367 2112.3 823.9C2075.5 802.433 2032.95 791.7 1984.65 791.7C1936.35 791.7 1893.41 802.433 1855.85 823.9C1819.05 845.367 1790.3 876.417 1769.6 917.05C1748.9 956.917 1738.55 1003.68 1738.55 1057.35C1738.55 1111.02 1748.9 1158.17 1769.6 1198.8C1790.3 1239.43 1819.05 1270.87 1855.85 1293.1C1893.41 1314.57 1936.35 1325.3 1984.65 1325.3ZM2675.98 915.9C2696.68 886.767 2725.04 862.617 2761.08 843.45C2797.88 823.517 2839.66 813.55 2886.43 813.55C2940.86 813.55 2989.93 826.967 3033.63 853.8C3078.09 880.633 3112.98 918.967 3138.28 968.8C3164.34 1017.87 3177.38 1074.98 3177.38 1140.15C3177.38 1205.32 3164.34 1263.2 3138.28 1313.8C3112.98 1363.63 3078.09 1402.35 3033.63 1429.95C2989.93 1457.55 2940.86 1471.35 2886.43 1471.35C2839.66 1471.35 2798.26 1461.77 2762.23 1442.6C2726.96 1423.43 2698.21 1399.28 2675.98 1370.15V1764.6H2514.98V823.9H2675.98V915.9ZM3012.93 1140.15C3012.93 1101.82 3004.88 1068.85 2988.78 1041.25C2973.44 1012.88 2952.74 991.417 2926.68 976.85C2901.38 962.283 2873.78 955 2843.88 955C2814.74 955 2787.14 962.667 2761.08 978C2735.78 992.567 2715.08 1014.03 2698.98 1042.4C2683.64 1070.77 2675.98 1104.12 2675.98 1142.45C2675.98 1180.78 2683.64 1214.13 2698.98 1242.5C2715.08 1270.87 2735.78 1292.72 2761.08 1308.05C2787.14 1322.62 2814.74 1329.9 2843.88 1329.9C2873.78 1329.9 2901.38 1322.23 2926.68 1306.9C2952.74 1291.57 2973.44 1269.72 2988.78 1241.35C3004.88 1212.98 3012.93 1179.25 3012.93 1140.15ZM3886.62 1128.65C3886.62 1151.65 3885.09 1172.35 3882.02 1190.75H3416.27C3420.1 1236.75 3436.2 1272.78 3464.57 1298.85C3492.94 1324.92 3527.82 1337.95 3569.22 1337.95C3629.02 1337.95 3671.57 1312.27 3696.87 1260.9H3870.52C3852.12 1322.23 3816.85 1372.83 3764.72 1412.7C3712.59 1451.8 3648.57 1471.35 3572.67 1471.35C3511.34 1471.35 3456.14 1457.93 3407.07 1431.1C3358.77 1403.5 3320.82 1364.78 3293.22 1314.95C3266.39 1265.12 3252.97 1207.62 3252.97 1142.45C3252.97 1076.52 3266.39 1018.63 3293.22 968.8C3320.05 918.967 3357.62 880.633 3405.92 853.8C3454.22 826.967 3509.8 813.55 3572.67 813.55C3633.24 813.55 3687.29 826.583 3734.82 852.65C3783.12 878.717 3820.3 915.9 3846.37 964.2C3873.2 1011.73 3886.62 1066.55 3886.62 1128.65ZM3719.87 1082.65C3719.1 1041.25 3704.15 1008.28 3675.02 983.75C3645.89 958.45 3610.24 945.8 3568.07 945.8C3528.2 945.8 3494.47 958.067 3466.87 982.6C3440.04 1006.37 3423.55 1039.72 3417.42 1082.65H3719.87ZM4357.19 814.7C4433.09 814.7 4494.42 838.85 4541.19 887.15C4587.95 934.683 4611.34 1001.38 4611.34 1087.25V1461H4450.34V1109.1C4450.34 1058.5 4437.69 1019.78 4412.39 992.95C4387.09 965.35 4352.59 951.55 4308.89 951.55C4264.42 951.55 4229.15 965.35 4203.09 992.95C4177.79 1019.78 4165.14 1058.5 4165.14 1109.1V1461H4004.14V823.9H4165.14V903.25C4186.6 875.65 4213.82 854.183 4246.79 838.85C4280.52 822.75 4317.32 814.7 4357.19 814.7ZM5555.64 814.7C5633.84 814.7 5696.71 838.85 5744.24 887.15C5792.54 934.683 5816.69 1001.38 5816.69 1087.25V1461H5655.69V1109.1C5655.69 1059.27 5643.04 1021.32 5617.74 995.25C5592.44 968.417 5557.94 955 5514.24 955C5470.54 955 5435.66 968.417 5409.59 995.25C5384.29 1021.32 5371.64 1059.27 5371.64 1109.1V1461H5210.64V1109.1C5210.64 1059.27 5197.99 1021.32 5172.69 995.25C5147.39 968.417 5112.89 955 5069.19 955C5024.72 955 4989.46 968.417 4963.39 995.25C4938.09 1021.32 4925.44 1059.27 4925.44 1109.1V1461H4764.44V823.9H4925.44V900.95C4946.14 874.117 4972.59 853.033 5004.79 837.7C5037.76 822.367 5073.79 814.7 5112.89 814.7C5162.72 814.7 5207.19 825.433 5246.29 846.9C5285.39 867.6 5315.67 897.5 5337.14 936.6C5357.84 899.8 5387.74 870.283 5426.84 848.05C5466.71 825.817 5509.64 814.7 5555.64 814.7ZM5928.07 1140.15C5928.07 1075.75 5940.72 1018.63 5966.02 968.8C5992.08 918.967 6026.97 880.633 6070.67 853.8C6115.13 826.967 6164.58 813.55 6219.02 813.55C6266.55 813.55 6307.95 823.133 6343.22 842.3C6379.25 861.467 6408 885.617 6429.47 914.75V823.9H6591.62V1461H6429.47V1367.85C6408.77 1397.75 6380.02 1422.67 6343.22 1442.6C6307.18 1461.77 6265.4 1471.35 6217.87 1471.35C6164.2 1471.35 6115.13 1457.55 6070.67 1429.95C6026.97 1402.35 5992.08 1363.63 5966.02 1313.8C5940.72 1263.2 5928.07 1205.32 5928.07 1140.15ZM6429.47 1142.45C6429.47 1103.35 6421.8 1070 6406.47 1042.4C6391.13 1014.03 6370.43 992.567 6344.37 978C6318.3 962.667 6290.32 955 6260.42 955C6230.52 955 6202.92 962.283 6177.62 976.85C6152.32 991.417 6131.62 1012.88 6115.52 1041.25C6100.18 1068.85 6092.52 1101.82 6092.52 1140.15C6092.52 1178.48 6100.18 1212.22 6115.52 1241.35C6131.62 1269.72 6152.32 1291.57 6177.62 1306.9C6203.68 1322.23 6231.28 1329.9 6260.42 1329.9C6290.32 1329.9 6318.3 1322.62 6344.37 1308.05C6370.43 1292.72 6391.13 1271.25 6406.47 1243.65C6421.8 1215.28 6429.47 1181.55 6429.47 1142.45ZM6909.86 922.8C6930.56 889.067 6957.4 862.617 6990.36 843.45C7024.1 824.283 7062.43 814.7 7105.36 814.7V983.75H7062.81C7012.21 983.75 6973.88 995.633 6947.81 1019.4C6922.51 1043.17 6909.86 1084.57 6909.86 1143.6V1461H6748.86V823.9H6909.86V922.8ZM7401.25 956.15V1264.35C7401.25 1285.82 7406.24 1301.53 7416.2 1311.5C7426.94 1320.7 7444.57 1325.3 7469.1 1325.3H7543.85V1461H7442.65C7306.95 1461 7239.1 1395.07 7239.1 1263.2V956.15H7163.2V823.9H7239.1V666.35H7401.25V823.9H7543.85V956.15H7401.25Z" fill="#1B1811"/>
<path d="M1223.81 636.897L1319.62 735.428H1210.02L1223.81 636.897Z" fill="#202020"/>
<path d="M924.387 624.719H1197.85C1219.94 624.719 1237.85 642.627 1237.85 664.719V735.063H924.387V624.719Z" fill="#202020"/>
<path d="M1543.2 13.1055L1633.21 104.218H1530.25L1543.2 13.1055Z" fill="#202020"/>
<path d="M1260.14 40C1260.14 17.9086 1278.05 0 1300.14 0H1516.2C1538.29 0 1556.2 17.9086 1556.2 40V104.218H1260.14V40Z" fill="#202020"/>
<path d="M1254.48 296.682L1345.59 386.687L1345.59 283.728L1254.48 296.682Z" fill="#202020"/>
<path d="M1281.38 1.74845e-06C1259.29 7.82809e-07 1241.38 17.9086 1241.38 40L1241.38 269.679C1241.38 291.771 1259.29 309.679 1281.38 309.679L1345.6 309.679L1345.6 4.55552e-06L1281.38 1.74845e-06Z" fill="#202020"/>
<rect x="-8" y="8" width="295.093" height="295.093" rx="32" transform="matrix(-1 0 0 1 1628 88.8853)" fill="white" stroke="#202020" stroke-width="16"/>
<mask id="path-9-inside-1_227_813" fill="white">
<path fill-rule="evenodd" clip-rule="evenodd" d="M399.629 399.979H710.722H981.815C1003.91 399.979 1021.82 417.887 1021.82 439.978V671.072C1021.82 693.163 1003.91 711.072 981.815 711.072H710.722H439.629C417.537 711.072 399.629 728.98 399.629 751.072V1022.17V1293.26C399.629 1315.35 417.537 1333.26 439.629 1333.26L710.722 1333.26L981.815 1333.26C1003.91 1333.26 1021.82 1315.35 1021.82 1293.26V1022.17V763.25C1021.82 741.159 1039.72 723.25 1061.82 723.25H1292.91C1315 723.25 1332.91 741.159 1332.91 763.25V1022.17V1333.26V1604.35C1332.91 1626.44 1315 1644.35 1292.91 1644.35H1021.82H710.722H399.629H128.535C106.444 1644.35 88.5352 1626.44 88.5352 1604.35V1333.26V1022.17V711.072V439.979C88.5352 417.887 106.444 399.979 128.535 399.979H399.629Z"/>
</mask>
<path fill-rule="evenodd" clip-rule="evenodd" d="M399.629 399.979H710.722H981.815C1003.91 399.979 1021.82 417.887 1021.82 439.978V671.072C1021.82 693.163 1003.91 711.072 981.815 711.072H710.722H439.629C417.537 711.072 399.629 728.98 399.629 751.072V1022.17V1293.26C399.629 1315.35 417.537 1333.26 439.629 1333.26L710.722 1333.26L981.815 1333.26C1003.91 1333.26 1021.82 1315.35 1021.82 1293.26V1022.17V763.25C1021.82 741.159 1039.72 723.25 1061.82 723.25H1292.91C1315 723.25 1332.91 741.159 1332.91 763.25V1022.17V1333.26V1604.35C1332.91 1626.44 1315 1644.35 1292.91 1644.35H1021.82H710.722H399.629H128.535C106.444 1644.35 88.5352 1626.44 88.5352 1604.35V1333.26V1022.17V711.072V439.979C88.5352 417.887 106.444 399.979 128.535 399.979H399.629Z" fill="white"/>
<path d="M710.722 1333.26L710.722 1349.26L710.722 1349.26L710.722 1333.26ZM981.815 1333.26L981.815 1317.26L981.815 1333.26ZM710.722 383.979H399.629V415.979H710.722V383.979ZM981.815 383.979H710.722V415.979H981.815V383.979ZM1037.82 671.072V439.978H1005.82V671.072H1037.82ZM710.722 727.072H981.815V695.072H710.722V727.072ZM439.629 727.072H710.722V695.072H439.629V727.072ZM415.629 1022.17V751.072H383.629V1022.17H415.629ZM415.629 1293.26V1022.17H383.629V1293.26H415.629ZM710.722 1317.26L439.629 1317.26L439.629 1349.26L710.722 1349.26L710.722 1317.26ZM981.815 1317.26L710.722 1317.26L710.722 1349.26L981.815 1349.26L981.815 1317.26ZM1005.82 1022.17V1293.26H1037.82V1022.17H1005.82ZM1005.82 763.25V1022.17H1037.82V763.25H1005.82ZM1292.91 707.25H1061.82V739.25H1292.91V707.25ZM1348.91 1022.17V763.25H1316.91V1022.17H1348.91ZM1348.91 1333.26V1022.17H1316.91V1333.26H1348.91ZM1316.91 1333.26V1604.35H1348.91V1333.26H1316.91ZM1292.91 1628.35H1021.82V1660.35H1292.91V1628.35ZM710.722 1660.35H1021.82V1628.35H710.722V1660.35ZM399.629 1660.35H710.722V1628.35H399.629V1660.35ZM128.535 1660.35H399.629V1628.35H128.535V1660.35ZM72.5352 1333.26V1604.35H104.535V1333.26H72.5352ZM72.5352 1022.17V1333.26H104.535V1022.17H72.5352ZM72.5352 711.072V1022.17H104.535V711.072H72.5352ZM72.5352 439.979V711.072H104.535V439.979H72.5352ZM399.629 383.979H128.535V415.979H399.629V383.979ZM128.535 1628.35C115.28 1628.35 104.535 1617.61 104.535 1604.35H72.5352C72.5352 1635.28 97.6072 1660.35 128.535 1660.35V1628.35ZM1316.91 1604.35C1316.91 1617.61 1306.16 1628.35 1292.91 1628.35V1660.35C1323.84 1660.35 1348.91 1635.28 1348.91 1604.35H1316.91ZM104.535 439.979C104.535 426.724 115.28 415.979 128.535 415.979V383.979C97.6071 383.979 72.5352 409.051 72.5352 439.979H104.535ZM1292.91 739.25C1306.16 739.25 1316.91 749.995 1316.91 763.25H1348.91C1348.91 732.322 1323.84 707.25 1292.91 707.25V739.25ZM1037.82 763.25C1037.82 749.995 1048.56 739.25 1061.82 739.25V707.25C1030.89 707.25 1005.82 732.322 1005.82 763.25H1037.82ZM981.815 1349.26C1012.74 1349.26 1037.82 1324.19 1037.82 1293.26H1005.82C1005.82 1306.51 995.07 1317.26 981.815 1317.26L981.815 1349.26ZM439.629 695.072C408.701 695.072 383.629 720.144 383.629 751.072H415.629C415.629 737.817 426.374 727.072 439.629 727.072V695.072ZM1005.82 671.072C1005.82 684.327 995.07 695.072 981.815 695.072V727.072C1012.74 727.072 1037.82 702 1037.82 671.072H1005.82ZM383.629 1293.26C383.629 1324.19 408.701 1349.26 439.629 1349.26L439.629 1317.26C426.374 1317.26 415.629 1306.51 415.629 1293.26H383.629ZM981.815 415.979C995.07 415.979 1005.82 426.724 1005.82 439.978H1037.82C1037.82 409.051 1012.74 383.979 981.815 383.979V415.979Z" fill="#202020" mask="url(#path-9-inside-1_227_813)"/>
<path d="M1052.81 713.638L1006.31 711.072L1013.63 787.462L1052.81 713.638Z" fill="#202020"/>
<rect x="1021.81" y="711.072" width="622.187" height="102.96" transform="rotate(90 1021.81 711.072)" fill="#202020"/>
<path d="M916.673 321.115L1006.68 412.228H903.719L916.673 321.115Z" fill="#202020"/>
<path d="M88.5352 308.01H889.667C911.759 308.01 929.667 325.918 929.667 348.01V412.228H88.5352V308.01Z" fill="#202020"/>
<path d="M12.9473 1542.68L102.96 1632.68L102.96 1529.72L12.9473 1542.68Z" fill="#202020"/>
<path d="M40 308.01C17.9086 308.01 7.8281e-07 325.918 1.74846e-06 348.01L5.27887e-05 1515.67C5.37543e-05 1537.77 17.9087 1555.67 40.0001 1555.67L102.96 1555.67L102.96 308.01L40 308.01Z" fill="#202020"/>
</svg>
