<svg width="799" height="200" viewBox="0 0 799 200" fill="none" xmlns="http://www.w3.org/2000/svg">
<path opacity="0.9" d="M100.279 199.833C44.5682 199.833 0 156.12 0 101.479C0 47.3844 44.5682 3.125 100.279 3.125H163.231C183.844 3.125 200 19.5174 200 39.1882V101.479C200 156.12 155.432 199.833 100.279 199.833Z" fill="#F25733"/>
<path d="M99.4919 58.9009C57.8802 58.9009 34.4413 93.3586 33.4637 94.8254C31.0537 98.4386 31.0537 103.111 33.4655 106.727C34.4413 108.191 57.8802 142.649 99.4919 142.649C141.103 142.649 164.543 108.191 165.52 106.724C167.93 103.111 167.93 98.4386 165.518 94.8228C164.542 93.3586 141.103 58.9009 99.4919 58.9009ZM39.2234 102.886C38.3677 101.604 38.3677 99.9464 39.2234 98.6634C40.0095 97.4835 56.6976 72.9706 86.5341 67.0905C73.0136 72.3096 63.393 85.4357 63.393 100.775C63.393 116.114 73.0136 129.24 86.5341 134.459C56.6976 128.579 40.0095 104.066 39.2234 102.886ZM82.8568 100.775C82.8568 102.686 81.3074 104.235 79.396 104.235C77.4845 104.235 75.9352 102.686 75.9352 100.775C75.9352 87.7859 86.5024 77.2186 99.4916 77.2186C101.403 77.2186 102.952 78.7677 102.952 80.6793C102.952 82.5909 101.403 84.1399 99.4916 84.1399C90.3189 84.1399 82.8568 91.602 82.8568 100.775ZM99.4919 109.188C94.8525 109.188 91.0783 105.414 91.0783 100.775C91.0783 96.1357 94.8525 92.3613 99.4919 92.3613C104.132 92.3613 107.906 96.1355 107.906 100.775C107.906 105.414 104.132 109.188 99.4919 109.188ZM159.76 102.886C158.974 104.066 142.286 128.579 112.45 134.459C125.971 129.24 135.591 116.114 135.591 100.775C135.591 85.4359 125.971 72.3097 112.45 67.0906C142.286 72.9711 158.974 97.4838 159.76 98.6635C160.616 99.9464 160.616 101.604 159.76 102.886Z" fill="#F9F2F9"/>
<path d="M303.591 74.6818C303.227 71.0151 301.667 68.1667 298.909 66.1364C296.152 64.1061 292.409 63.0909 287.682 63.0909C284.47 63.0909 281.758 63.5455 279.545 64.4545C277.333 65.3333 275.636 66.5606 274.455 68.1364C273.303 69.7121 272.727 71.5 272.727 73.5C272.667 75.1667 273.015 76.6212 273.773 77.8636C274.561 79.1061 275.636 80.1818 277 81.0909C278.364 81.9697 279.939 82.7424 281.727 83.4091C283.515 84.0455 285.424 84.5909 287.455 85.0455L295.818 87.0455C299.879 87.9545 303.606 89.1667 307 90.6818C310.394 92.197 313.333 94.0606 315.818 96.2727C318.303 98.4848 320.227 101.091 321.591 104.091C322.985 107.091 323.697 110.53 323.727 114.409C323.697 120.106 322.242 125.045 319.364 129.227C316.515 133.379 312.394 136.606 307 138.909C301.636 141.182 295.167 142.318 287.591 142.318C280.076 142.318 273.53 141.167 267.955 138.864C262.409 136.561 258.076 133.152 254.955 128.636C251.864 124.091 250.242 118.47 250.091 111.773H269.136C269.348 114.894 270.242 117.5 271.818 119.591C273.424 121.652 275.561 123.212 278.227 124.273C280.924 125.303 283.97 125.818 287.364 125.818C290.697 125.818 293.591 125.333 296.045 124.364C298.53 123.394 300.455 122.045 301.818 120.318C303.182 118.591 303.864 116.606 303.864 114.364C303.864 112.273 303.242 110.515 302 109.091C300.788 107.667 299 106.455 296.636 105.455C294.303 104.455 291.439 103.545 288.045 102.727L277.909 100.182C270.061 98.2727 263.864 95.2879 259.318 91.2273C254.773 87.1667 252.515 81.697 252.545 74.8182C252.515 69.1818 254.015 64.2576 257.045 60.0455C260.106 55.8333 264.303 52.5455 269.636 50.1818C274.97 47.8182 281.03 46.6364 287.818 46.6364C294.727 46.6364 300.758 47.8182 305.909 50.1818C311.091 52.5455 315.121 55.8333 318 60.0455C320.879 64.2576 322.364 69.1364 322.455 74.6818H303.591ZM336.602 141V71.1818H355.966V141H336.602ZM346.33 62.1818C343.451 62.1818 340.981 61.2273 338.92 59.3182C336.89 57.3788 335.875 55.0606 335.875 52.3636C335.875 49.697 336.89 47.4091 338.92 45.5C340.981 43.5606 343.451 42.5909 346.33 42.5909C349.208 42.5909 351.663 43.5606 353.693 45.5C355.754 47.4091 356.784 49.697 356.784 52.3636C356.784 55.0606 355.754 57.3788 353.693 59.3182C351.663 61.2273 349.208 62.1818 346.33 62.1818ZM402.932 168.636C396.659 168.636 391.28 167.773 386.795 166.045C382.341 164.348 378.795 162.03 376.159 159.091C373.523 156.152 371.811 152.848 371.023 149.182L388.932 146.773C389.477 148.167 390.341 149.47 391.523 150.682C392.705 151.894 394.265 152.864 396.205 153.591C398.174 154.348 400.568 154.727 403.386 154.727C407.598 154.727 411.068 153.697 413.795 151.636C416.553 149.606 417.932 146.197 417.932 141.409V128.636H417.114C416.265 130.576 414.992 132.409 413.295 134.136C411.598 135.864 409.417 137.273 406.75 138.364C404.083 139.455 400.902 140 397.205 140C391.962 140 387.189 138.788 382.886 136.364C378.614 133.909 375.205 130.167 372.659 125.136C370.144 120.076 368.886 113.682 368.886 105.955C368.886 98.0455 370.174 91.4394 372.75 86.1364C375.326 80.8333 378.75 76.8636 383.023 74.2273C387.326 71.5909 392.038 70.2727 397.159 70.2727C401.068 70.2727 404.341 70.9394 406.977 72.2727C409.614 73.5758 411.735 75.2121 413.341 77.1818C414.977 79.1212 416.235 81.0303 417.114 82.9091H417.841V71.1818H437.068V141.682C437.068 147.621 435.614 152.591 432.705 156.591C429.795 160.591 425.765 163.591 420.614 165.591C415.492 167.621 409.598 168.636 402.932 168.636ZM403.341 125.455C406.462 125.455 409.098 124.682 411.25 123.136C413.432 121.561 415.098 119.318 416.25 116.409C417.432 113.47 418.023 109.955 418.023 105.864C418.023 101.773 417.447 98.2273 416.295 95.2273C415.144 92.197 413.477 89.8485 411.295 88.1818C409.114 86.5151 406.462 85.6818 403.341 85.6818C400.159 85.6818 397.477 86.5455 395.295 88.2727C393.114 89.9697 391.462 92.3333 390.341 95.3636C389.22 98.3939 388.659 101.894 388.659 105.864C388.659 109.894 389.22 113.379 390.341 116.318C391.492 119.227 393.144 121.485 395.295 123.091C397.477 124.667 400.159 125.455 403.341 125.455ZM530.705 47.9091V141H513.705L473.205 82.4091H472.523V141H452.841V47.9091H470.114L510.295 106.455H511.114V47.9091H530.705ZM578.148 142.364C571.087 142.364 564.981 140.864 559.83 137.864C554.708 134.833 550.754 130.621 547.966 125.227C545.178 119.803 543.784 113.515 543.784 106.364C543.784 99.1515 545.178 92.8485 547.966 87.4545C550.754 82.0303 554.708 77.8182 559.83 74.8182C564.981 71.7879 571.087 70.2727 578.148 70.2727C585.208 70.2727 591.299 71.7879 596.42 74.8182C601.572 77.8182 605.542 82.0303 608.33 87.4545C611.117 92.8485 612.511 99.1515 612.511 106.364C612.511 113.515 611.117 119.803 608.33 125.227C605.542 130.621 601.572 134.833 596.42 137.864C591.299 140.864 585.208 142.364 578.148 142.364ZM578.239 127.364C581.451 127.364 584.133 126.455 586.284 124.636C588.436 122.788 590.057 120.273 591.148 117.091C592.269 113.909 592.83 110.288 592.83 106.227C592.83 102.167 592.269 98.5455 591.148 95.3636C590.057 92.1818 588.436 89.6667 586.284 87.8182C584.133 85.9697 581.451 85.0455 578.239 85.0455C574.996 85.0455 572.269 85.9697 570.057 87.8182C567.875 89.6667 566.223 92.1818 565.102 95.3636C564.011 98.5455 563.466 102.167 563.466 106.227C563.466 110.288 564.011 113.909 565.102 117.091C566.223 120.273 567.875 122.788 570.057 124.636C572.269 126.455 574.996 127.364 578.239 127.364ZM624.739 141V129.455L658.92 87.1364V86.6364H625.92V71.1818H682.239V83.7727L650.148 125.045V125.545H683.42V141H624.739Z" fill="black"/>
</svg>
