<svg xmlns="http://www.w3.org/2000/svg" width="231" height="60" viewBox="0 0 231 60" fill="none">
<path d="M55.5835 41L58.429 33.4861H71.0115L73.8571 41H79.3702L67.7214 11.211H61.9415L50.2926 41H55.5835ZM63.1419 21.0814L64.7425 15.7016L66.3431 21.0814L69.3665 29.1289H60.0741L63.1419 21.0814ZM87.1982 41V11.211H82.2185V41H87.1982ZM97.4451 41V11.211H92.4655V41H97.4451ZM111.827 41.4446C118.14 41.4446 122.409 36.9096 122.409 30.1959C122.409 23.4378 118.14 18.9028 111.827 18.9028C105.602 18.9028 101.334 23.4378 101.334 30.1959C101.334 36.9096 105.602 41.4446 111.827 41.4446ZM111.871 37.3097C108.67 37.3097 106.447 35.1756 106.447 30.1959C106.447 25.1718 108.67 23.0377 111.871 23.0377C115.117 23.0377 117.34 25.1718 117.34 30.1959C117.34 35.1756 115.117 37.3097 111.871 37.3097ZM140.372 41C146.774 41 150.731 38.3768 150.731 33.0859C150.731 29.0844 148.33 26.061 141.572 25.5275C146.374 25.1273 149.486 22.7709 149.486 18.8139C149.486 14.4122 146.641 11.211 140.594 11.211H127.078V41H140.372ZM139.082 15.6571C142.195 15.6571 144.284 16.6353 144.284 19.6586C144.284 22.682 142.239 23.6157 139.26 23.6157H132.102V15.6571H139.082ZM139.749 27.8395C143.217 27.8395 145.574 29.1733 145.574 32.1967C145.574 35.22 143.706 36.5539 139.616 36.5539H132.102V27.8395H139.749ZM160.186 41V29.0844C160.186 25.483 162.498 22.6375 164.988 22.6375C166.455 22.6375 167.033 23.6157 167.033 24.8161C167.033 26.061 166.366 27.4838 165.655 28.1952H170.768C171.168 27.5283 171.746 25.9721 171.746 23.8824C171.746 20.6812 169.745 18.9028 167.033 18.9028C163.165 18.9028 160.986 22.0151 160.186 25.483V19.3474H155.206V41H160.186ZM179.411 41.4446C183.946 41.4446 186.036 38.0656 186.703 35.22V36.8206C186.703 39.9329 188.526 41 190.838 41H193.905V36.7317H192.527C191.727 36.7317 191.371 36.4205 191.371 35.4423V27.3059C191.371 21.9706 188.348 18.9028 182.968 18.9028C178.166 18.9028 174.787 21.3926 173.098 23.7046L176.076 27.2615C177.321 24.994 179.589 23.3044 182.479 23.3044C185.458 23.3044 186.436 24.7717 186.614 26.9503L179.367 30.0181C175.854 31.3964 173.72 33.2637 173.72 36.3316C173.72 39.4439 175.854 41.4446 179.411 41.4446ZM178.522 35.5757C178.522 34.4642 179.278 33.7084 181.145 32.8636L186.703 30.3738V32.6858C186.703 35.6202 184.48 37.5765 181.19 37.5765C179.367 37.5765 178.522 36.8206 178.522 35.5757ZM202.693 16.2796V11.211H197.713V16.2796H202.693ZM202.693 41V19.3474H197.713V41H202.693ZM212.94 41V28.8621C212.94 25.3052 214.185 22.9488 217.831 22.9488C221.165 22.9488 222.055 24.7717 222.055 27.4393V41H227.079V25.9277C227.079 21.4371 224.5 18.9028 220.276 18.9028C215.963 18.9028 213.74 21.8372 212.94 25.2607V19.3474H207.96V41H212.94Z" fill="black"/>
<path d="M28.3358 34.009C21.4839 34.009 8.1493 27.234 8.1493 18.8765C8.1493 10.5192 21.4839 3.74414 28.3358 3.74414C35.1877 3.74414 40.7422 10.5192 40.7422 18.8765C40.7422 27.234 35.1877 34.009 28.3358 34.009Z" fill="#9767FF"/>
<path d="M46.269 25.0471C44.1545 15.8879 25.485 25.176 14.0105 23.4169C3.97476 21.8784 0.903923 29.4602 2.71668 37.3121C4.52944 45.164 13.9958 50.8639 26.9102 47.8824C39.8245 44.9009 48.0818 32.899 46.269 25.0471Z" fill="#7C40FF" fill-opacity="0.8"/>
<path d="M171.758 45.3965L172.188 45.7349C182.189 53.6025 196.314 53.4617 206.157 45.3965V45.3965" stroke="black" stroke-width="4.21211"/>
</svg>
