<svg width="22" height="17" viewBox="0 0 22 17" fill="none" xmlns="http://www.w3.org/2000/svg">
<path d="M19.309 14.1987C21.196 12.1507 21.006 9.52072 21 9.49072V1.49072C21 1.22551 20.8946 0.971152 20.7071 0.783616C20.5196 0.59608 20.2652 0.490723 20 0.490723H14C12.897 0.490723 12 1.38772 12 2.49072V9.49072C12 9.75594 12.1053 10.0103 12.2929 10.1978C12.4804 10.3854 12.7348 10.4907 13 10.4907H16.078C16.0569 10.9851 15.9091 11.4658 15.649 11.8867C15.141 12.6877 14.184 13.2347 12.803 13.5107L12 13.6707V16.4907H13C15.783 16.4907 17.906 15.7197 19.309 14.1987ZM8.30198 14.1987C10.19 12.1507 9.99898 9.52072 9.99298 9.49072V1.49072C9.99298 1.22551 9.88762 0.971152 9.70009 0.783616C9.51255 0.59608 9.2582 0.490723 8.99298 0.490723H2.99298C1.88998 0.490723 0.992981 1.38772 0.992981 2.49072V9.49072C0.992981 9.75594 1.09834 10.0103 1.28587 10.1978C1.47341 10.3854 1.72776 10.4907 1.99298 10.4907H5.07098C5.04985 10.9851 4.90214 11.4658 4.64198 11.8867C4.13398 12.6877 3.17698 13.2347 1.79598 13.5107L0.992981 13.6707V16.4907H1.99298C4.77598 16.4907 6.89898 15.7197 8.30198 14.1987Z" fill="url(#paint0_linear_1345_9985)"/>
<defs>
<linearGradient id="paint0_linear_1345_9985" x1="11.0005" y1="0.490723" x2="11.0005" y2="16.4907" gradientUnits="userSpaceOnUse">
<stop stop-color="#A33EB5"/>
<stop offset="1" stop-color="#00DDE7"/>
</linearGradient>
</defs>
</svg>
