<svg width="100" height="23" viewBox="0 0 100 23" fill="none" xmlns="http://www.w3.org/2000/svg">
<path d="M37.1804 21.8817H33.7256V5.98975H41.257C45.2991 5.98975 48.2356 8.96085 48.2356 13.072V21.8817H44.7809V13.0375C44.7809 10.7919 43.1917 9.09905 40.9806 9.09905C38.8041 9.09905 37.1804 10.7919 37.1804 13.0375V21.8817Z" fill="currentColor"></path>
<path d="M23.4886 22.226H23.4195C18.7556 22.226 15.0244 18.5639 15.0244 13.9345C15.0244 9.30513 18.7556 5.64307 23.4195 5.64307H23.4886C28.1871 5.64307 31.8837 9.30513 31.8837 13.9345C31.8837 18.5639 28.1871 22.226 23.4886 22.226ZM23.4195 18.7712H23.4886C26.1488 18.7712 28.2908 16.5602 28.2908 13.9345C28.2908 11.2744 26.1488 9.09784 23.4886 9.09784H23.4195C20.7593 9.09784 18.6174 11.2398 18.6174 13.9345C18.6174 16.5947 20.7593 18.7712 23.4195 18.7712Z" fill="currentColor"></path>
<path d="M8.42966 22.226C3.73116 22.226 0 18.5294 0 13.9345C0 9.33968 3.69661 5.64307 8.39511 5.64307C10.6062 5.64307 12.7136 6.50676 14.2682 8.06141L11.8844 10.4798C10.9516 9.51242 9.70792 9.02875 8.39511 9.02875C5.73493 9.02875 3.59297 11.2053 3.59297 13.9345C3.59297 16.6293 5.76948 18.8403 8.42966 18.8403C9.74247 18.8403 10.9862 18.3221 11.8844 17.3893L14.2682 19.8077C12.7136 21.3278 10.6407 22.226 8.42966 22.226Z" fill="currentColor"></path>
<path d="M91.1211 21.7651H94.5759V11.9535C94.5759 10.3298 95.785 9.12061 97.4088 9.12061H99.9999V5.87312H97.4088C95.785 5.87312 94.5759 4.66395 94.5759 3.0402V0H91.1211V3.0402V11.9535V21.7651Z" fill="currentColor"></path>
<path d="M85.2021 3.57174H88.7606V0H85.2021V3.57174Z" fill="currentColor"></path>
<path d="M85.2021 21.8805H88.7606V5.98851H85.2021V21.8805Z" fill="currentColor"></path>
<path d="M82.8411 21.8817H75.3443C71.3022 21.8817 68.3311 18.8415 68.3311 14.7303V5.98975H71.7858V14.834C71.7858 17.045 73.4096 18.7033 75.5861 18.7033C77.7971 18.7033 79.3863 17.045 79.3863 14.834V5.98975H82.8411V21.8817Z" fill="currentColor"></path>
<path fill-rule="evenodd" clip-rule="evenodd" d="M62.5153 0V5.98828H58.0241C53.6365 5.98828 50.0781 9.5467 50.0781 13.9343C50.0781 18.3218 53.6365 21.8803 58.0241 21.8803H65.9701V0H62.5153ZM62.619 13.9343C62.619 16.4217 60.6152 18.4946 58.1278 18.4946C55.6749 18.4946 53.6711 16.4217 53.6711 13.9343C53.6711 11.4123 55.6749 9.37396 58.1278 9.37396C60.6152 9.37396 62.619 11.4123 62.619 13.9343Z" fill="currentColor"></path>
</svg>
