<?xml version="1.0" encoding="utf-8"?>
<!-- Generator: Adobe Illustrator 27.1.1, SVG Export Plug-In . SVG Version: 6.00 Build 0)  -->
<svg version="1.1" id="Layer_1" xmlns="http://www.w3.org/2000/svg" xmlns:xlink="http://www.w3.org/1999/xlink" x="0px" y="0px"
	 viewBox="0 0 1693.91 1693.91" style="enable-background:new 0 0 1693.91 1693.91;" xml:space="preserve">
<style type="text/css">
	.st0{fill:#FFFFFF;}
	.st1{fill:#231F20;}
	.st2{fill:none;stroke:url(#SVGID_1_);stroke-width:6;stroke-miterlimit:10;}
	.st3{fill:none;stroke:url(#SVGID_00000005225132478653443260000011461802870243739836_);stroke-width:6;stroke-miterlimit:10;}
	.st4{fill:#FAF9D0;}
	.st5{fill:none;stroke:url(#SVGID_00000023242902915591488510000004748202454535059331_);stroke-width:6;stroke-miterlimit:10;}
	.st6{fill:none;stroke:url(#SVGID_00000079485253536554256630000016514780713986485172_);stroke-width:6;stroke-miterlimit:10;}
	.st7{fill:none;stroke:url(#SVGID_00000059993317026553009030000014201341555462749882_);stroke-width:6;stroke-miterlimit:10;}
	.st8{fill:none;stroke:#37BBCA;stroke-width:6;stroke-miterlimit:10;}
	.st9{fill:none;stroke:#0191B6;stroke-width:6;stroke-miterlimit:10;}
	.st10{fill:none;stroke:#FF9917;stroke-width:6;stroke-miterlimit:10;}
	.st11{fill:none;stroke:url(#SVGID_00000046337379493511311630000011574489286958722474_);stroke-width:6;stroke-miterlimit:10;}
	.st12{fill:none;stroke:url(#SVGID_00000062156563172450982370000004388817010930076552_);stroke-width:6;stroke-miterlimit:10;}
	.st13{fill:none;stroke:url(#SVGID_00000087381529985154067350000003133473433726152364_);stroke-width:6;stroke-miterlimit:10;}
	.st14{fill:#12848C;}
	.st15{fill:#00DDE7;}
	.st16{fill:#A33EB5;}
	.st17{fill:#D3FF19;}
	.st18{fill:#235761;}
	.st19{fill:#917D76;}
	.st20{fill:#DBC5C3;}
	.st21{fill:#E4B572;}
	.st22{fill:#6CA0AE;}
	.st23{fill:#A8B1B6;}
	.st24{fill:#511F5A;}
	.st25{fill:#FFED0D;}
	.st26{fill:#231F20;stroke:url(#SVGID_00000082351054084794126840000016784604187493202830_);stroke-width:6;stroke-miterlimit:10;}
	.st27{fill:#231F20;stroke:url(#SVGID_00000008833142173568840080000011425146282390615464_);stroke-width:6;stroke-miterlimit:10;}
	.st28{fill:url(#SVGID_00000116931611846165473440000011743356654823036081_);}
	.st29{fill:#231F20;stroke:url(#SVGID_00000143618413774325868800000014008168486456593305_);stroke-width:6;stroke-miterlimit:10;}
	.st30{fill:#231F20;stroke:url(#SVGID_00000148641994409009144030000016835747259804936101_);stroke-width:6;stroke-miterlimit:10;}
	.st31{fill:#231F20;stroke:url(#SVGID_00000128456697625623883630000004671005943589206457_);stroke-width:6;stroke-miterlimit:10;}
	.st32{fill:#FFFFFF;stroke:url(#SVGID_00000120533726600794010050000003345579732379502477_);stroke-width:6;stroke-miterlimit:10;}
	.st33{fill:#FFFFFF;stroke:url(#SVGID_00000156561333412861817630000017285541348378074288_);stroke-width:6;stroke-miterlimit:10;}
	.st34{fill:url(#SVGID_00000132089494776964265120000000343805447067220377_);}
	.st35{fill:#FFFFFF;stroke:url(#SVGID_00000036239646136434054930000010257683399883237266_);stroke-width:6;stroke-miterlimit:10;}
	.st36{fill:#FFFFFF;stroke:url(#SVGID_00000091698389567217686700000009313814824219635861_);stroke-width:6;stroke-miterlimit:10;}
	.st37{fill:#FFFFFF;stroke:url(#SVGID_00000088831100137000153190000014768720469880270208_);stroke-width:6;stroke-miterlimit:10;}
	.st38{fill:#231F20;stroke:#511F5A;stroke-width:6;stroke-miterlimit:10;}
	.st39{fill:#231F20;stroke:#E4B572;stroke-width:6;stroke-miterlimit:10;}
	.st40{fill:#231F20;stroke:#A33EB5;stroke-width:6;stroke-miterlimit:10;}
	.st41{fill:#231F20;stroke:#FFED0D;stroke-width:6;stroke-miterlimit:10;}
	.st42{fill:#231F20;stroke:#00DDE7;stroke-width:6;stroke-miterlimit:10;}
	.st43{fill:url(#SVGID_00000135648483981801421430000005286007702180604859_);}
	.st44{fill:url(#SVGID_00000052074341148356189540000012996507097709185690_);}
	.st45{fill:url(#SVGID_00000132086964725892248230000001105392098563539110_);}
	.st46{fill:url(#SVGID_00000146484816975009832150000009360235346235120525_);}
	.st47{fill:url(#SVGID_00000063591827099529952620000015958506901414555282_);}
	.st48{fill:url(#SVGID_00000142894134771611356600000013991913238071744130_);}
	.st49{fill:#231F20;stroke:url(#SVGID_00000095307511387241576490000016191775364316898221_);stroke-width:6;stroke-miterlimit:10;}
	.st50{fill:#231F20;stroke:url(#SVGID_00000148619969098237027120000016256526062140153271_);stroke-width:6;stroke-miterlimit:10;}
	.st51{fill:#231F20;stroke:url(#SVGID_00000088836378929713531720000015754302632291760805_);stroke-width:6;stroke-miterlimit:10;}
	.st52{fill:none;stroke:url(#SVGID_00000176015997706106618250000005079366330174248607_);stroke-width:6;stroke-miterlimit:10;}
	.st53{fill:none;stroke:url(#SVGID_00000109745591283839869270000017919248021735863711_);stroke-width:6;stroke-miterlimit:10;}
	.st54{fill:none;stroke:url(#SVGID_00000152964897576017300740000011047478745397103294_);stroke-width:6;stroke-miterlimit:10;}
	.st55{fill:none;stroke:url(#SVGID_00000042721698769674853440000012229301979266590595_);stroke-width:6;stroke-miterlimit:10;}
	.st56{fill:none;stroke:url(#SVGID_00000169555526548448467090000012815155220200266373_);stroke-width:6;stroke-miterlimit:10;}
	.st57{fill:none;stroke:url(#SVGID_00000081641523165121620590000003007564535657186471_);stroke-width:47;stroke-miterlimit:10;}
	.st58{fill:none;stroke:url(#SVGID_00000027576864533855172770000011570662407128676283_);stroke-width:47;stroke-miterlimit:10;}
	.st59{fill:url(#SVGID_00000018239540590331192670000003133670015267519370_);}
	.st60{fill:none;stroke:url(#SVGID_00000111883076928780767440000011415531483617582516_);stroke-width:47;stroke-miterlimit:10;}
	.st61{fill:none;stroke:url(#SVGID_00000050640720549682374760000002616053298494816927_);stroke-width:47;stroke-miterlimit:10;}
	.st62{fill:none;stroke:url(#SVGID_00000022536973915339211310000008645399301237242524_);stroke-width:47;stroke-miterlimit:10;}
	.st63{fill:url(#SVGID_00000169555835426703560560000006824299612020448903_);}
	.st64{fill:url(#SVGID_00000137850891019831724870000013320556761472601266_);}
	.st65{fill:url(#SVGID_00000137811110692028653800000014236767694098455455_);}
	.st66{fill:url(#SVGID_00000125562441580868320580000006207369142764743610_);}
	.st67{fill:url(#SVGID_00000176740822801126770860000013971574107634220989_);}
	.st68{fill:url(#SVGID_00000031204970554707690980000015385240354279451776_);}
	.st69{fill:url(#SVGID_00000029048010834596399520000011983794842626790309_);}
	.st70{fill:url(#SVGID_00000081622688482445031920000001626782030246720914_);}
	.st71{fill:url(#SVGID_00000024684001026421680400000004319219030366297752_);}
	.st72{fill:url(#SVGID_00000158731999755490996880000017837604672237461389_);}
	.st73{fill:url(#SVGID_00000103255249654005386420000015312413946180026760_);}
	.st74{fill:url(#SVGID_00000130611773537523752100000009563503662675072169_);}
	.st75{fill:url(#SVGID_00000013156616500052611560000006472794457382976145_);}
	.st76{fill:url(#SVGID_00000151533214910104078330000006676835667838906019_);}
	.st77{fill:url(#SVGID_00000059992358257991261680000009451917083447384215_);}
	.st78{fill:url(#SVGID_00000028295341323901659020000011158312548455396789_);}
	.st79{fill:url(#SVGID_00000031896260422480420160000015584393399413634218_);}
	.st80{fill:url(#SVGID_00000165212671447267313760000004924381963094247093_);}
	.st81{fill:url(#SVGID_00000017481031217690655210000009295658667695542923_);}
	.st82{fill:url(#SVGID_00000074441191873131822340000012763105433465946029_);}
	.st83{fill:url(#SVGID_00000107546547190147829900000001953671684319923076_);}
	.st84{fill:url(#SVGID_00000102537215513384011190000003231949137060986778_);}
	.st85{fill:url(#SVGID_00000046320983504330889700000004438161176330422183_);}
	.st86{fill:url(#SVGID_00000067232436999283536030000007851574494838054039_);}
	.st87{fill:url(#SVGID_00000089549575822514220710000014194181902209403319_);}
	.st88{fill:url(#SVGID_00000045610637324539592880000009815988436823319997_);}
	.st89{fill:url(#SVGID_00000116204747907721483150000010277233204439415724_);}
	.st90{fill:url(#SVGID_00000114773390293654461140000013912776589361508277_);}
	.st91{fill:url(#SVGID_00000121268121991788208510000002738955382268008852_);}
	.st92{fill:url(#SVGID_00000050639492133093271540000009286177325983404703_);}
</style>
<g>
	<linearGradient id="SVGID_1_" gradientUnits="userSpaceOnUse" x1="1156.3409" y1="605.3247" x2="1350.9115" y2="605.3247">
		<stop  offset="0" style="stop-color:#A33EB5"/>
		<stop  offset="1" style="stop-color:#C275D0"/>
	</linearGradient>
	<path style="fill:url(#SVGID_1_);" d="M1253.79,702.61c-30.47,0-60.5-14.24-79.45-40.91c-15.05-21.19-20.95-46.96-16.61-72.59
		c4.34-25.62,18.4-48.02,39.58-63.07c21.19-15.05,46.97-20.95,72.59-16.61c25.62,4.34,48.02,18.4,63.07,39.58l0,0
		c31.07,43.73,20.76,104.59-22.97,135.66C1292.94,696.78,1273.27,702.61,1253.79,702.61z M1253.55,555.05
		c-10.34,0-20.41,3.19-29.02,9.3c-10.95,7.78-18.22,19.36-20.46,32.6c-2.24,13.24,0.81,26.57,8.59,37.52
		c16.06,22.61,47.51,27.93,70.12,11.87c22.6-16.06,27.93-47.52,11.87-70.12l0,0c-7.78-10.95-19.36-18.22-32.6-20.46
		C1259.21,555.29,1256.37,555.05,1253.55,555.05z"/>
	
		<linearGradient id="SVGID_00000049212825766125861050000014258069368712352428_" gradientUnits="userSpaceOnUse" x1="1317.3737" y1="738.1069" x2="1446.313" y2="738.1069">
		<stop  offset="0" style="stop-color:#D3FF19"/>
		<stop  offset="1" style="stop-color:#E3FF6B"/>
	</linearGradient>
	<path style="fill:url(#SVGID_00000049212825766125861050000014258069368712352428_);" d="M1381.91,802.58
		c-20.19,0-40.09-9.43-52.65-27.11c-20.59-28.98-13.76-69.31,15.22-89.9c14.04-9.97,31.12-13.88,48.1-11.01
		c16.98,2.88,31.82,12.19,41.8,26.23c9.97,14.04,13.88,31.12,11.01,48.1c-2.88,16.98-12.19,31.82-26.23,41.8
		C1407.86,798.72,1394.82,802.58,1381.91,802.58z M1381.79,720.65c-3.59,0-7.09,1.11-10.08,3.23c-7.85,5.58-9.71,16.51-4.13,24.36
		c5.58,7.85,16.51,9.7,24.36,4.12c3.8-2.7,6.33-6.73,7.11-11.33s-0.28-9.23-2.98-13.04l0,0c-2.7-3.81-6.73-6.33-11.33-7.11
		C1383.76,720.73,1382.77,720.65,1381.79,720.65z"/>
	
		<linearGradient id="SVGID_00000068660321934244917060000017006111867158740668_" gradientUnits="userSpaceOnUse" x1="1211.1221" y1="1099.2535" x2="1296.1881" y2="1099.2535">
		<stop  offset="0" style="stop-color:#12848C"/>
		<stop  offset="1" style="stop-color:#17A6B0"/>
	</linearGradient>
	<circle style="fill:url(#SVGID_00000068660321934244917060000017006111867158740668_);" cx="1253.66" cy="1099.25" r="42.53"/>
	
		<linearGradient id="SVGID_00000111877431237300002490000007106450344656973243_" gradientUnits="userSpaceOnUse" x1="247.5754" y1="841.1818" x2="1077.8995" y2="841.1818">
		<stop  offset="0" style="stop-color:#00DDE7"/>
		<stop  offset="1" style="stop-color:#8BFAFF"/>
	</linearGradient>
	<path style="fill:url(#SVGID_00000111877431237300002490000007106450344656973243_);" d="M566.81,1323.08l-68.63-41.23
		c-58.76-35.3-112.27-85.56-154.74-145.35c-72.98-102.74-106.78-223.26-92.75-330.72c0.15-1.47,0.35-2.75,0.52-3.78
		c14.4-123.89,96.48-250.04,219.67-337.55c95.58-67.89,204.77-105.15,307.93-105.15c1.35,0,2.69,0.01,4.04,0.02
		c51.64,0.49,99.02,10.33,140.82,29.24c44.03,19.92,79.84,49,106.44,86.44c23.11,32.53,38.03,69.78,44.35,110.71
		c6.02,39,4.09,80.34-5.74,122.86c-19.37,83.76-69.15,167.99-140.19,237.2c-21.98,21.71-46.4,42.15-72.58,60.75
		c-60.53,43-128.3,74.5-195.98,91.08c-15.53,3.81-31,5.86-45.96,7.85l-5.55,0.74c-4.13,0.56-8.18,1.37-12.03,2.42l-0.23,0.06
		c-11.62,3.04-22.57,8.17-32.53,15.25c-40.85,29.02-54.45,82.59-32.32,127.37L566.81,1323.08z M778.8,406.29
		c-93.48,0-193.01,34.18-280.7,96.47c-112.7,80.06-187.57,194.16-200.27,305.21l-0.18,1.25c-0.09,0.51-0.2,1.15-0.22,1.38l-0.1,0.92
		c-12.63,95.92,18.14,204.45,84.42,297.75c26.64,37.51,57.96,70.85,92.23,98.42c-0.08-12.32,1.36-24.7,4.37-36.83
		c8.53-34.42,29.17-64.7,58.1-85.25c14.58-10.35,30.63-17.88,47.73-22.37c5.81-1.58,11.86-2.8,18-3.62c1.88-0.25,3.76-0.5,5.64-0.75
		c14.35-1.91,27.91-3.71,40.97-6.91c61.98-15.19,124.2-44.15,179.95-83.75c24.14-17.15,46.61-35.96,66.81-55.91l0.12-0.12
		c64.7-63.01,109.9-139.08,127.27-214.2c17.34-74.99,6.57-142.68-31.14-195.77c-43.32-60.98-117.68-95.03-209.39-95.9
		C781.22,406.29,780.01,406.29,778.8,406.29z"/>
	
		<linearGradient id="SVGID_00000038402677606876290170000013361206754470977443_" gradientUnits="userSpaceOnUse" x1="448.7752" y1="971.6255" x2="1212.2577" y2="971.6255">
		<stop  offset="0.4469" style="stop-color:#D3FF19"/>
		<stop  offset="1" style="stop-color:#E3FF6B"/>
	</linearGradient>
	<path style="fill:url(#SVGID_00000038402677606876290170000013361206754470977443_);" d="M566.45,1322.39l-44.7-66.42
		c-31.89-47.39-54.54-104.2-65.49-164.29c-18.82-103.29-1.75-206.23,46.82-282.5c0.65-1.09,1.28-2.02,1.77-2.74
		c54.69-88.5,161.13-154.76,284.89-177.31c97.26-17.72,194.02-6.78,272.44,30.8c38.94,18.66,71.37,42.92,96.38,72.11
		c26.42,30.83,43.33,65.75,50.26,103.75l0,0c6.02,33.03,4.12,66.72-5.65,100.14c-9.28,31.76-25.41,62.45-47.95,91.21
		c-44.23,56.45-111.56,102.48-189.59,129.64c-24.22,8.62-49.82,15.41-76.09,20.2c-60.78,11.07-122.98,10.92-179.86-0.44
		c-13.15-2.63-25.54-6.53-37.52-10.3l-4.41-1.39c-3.11-0.97-6.25-1.74-9.32-2.27l-0.23-0.04c-9.26-1.7-18.74-1.69-28.17,0.03
		c-38.68,7.05-66.15,40.6-65.31,79.77L566.45,1322.39z M880.39,667.84c-26.97,0-54.54,2.49-82.22,7.54
		c-111.09,20.24-205.9,78.64-253.61,156.23l-0.7,1.07c-0.16,0.24-0.33,0.47-0.5,0.73l-0.46,0.75
		c-42.42,66.42-57.15,157.21-40.41,249.11c6.22,34.12,16.6,66.98,30.58,97.18c3.67-6.75,7.96-13.19,12.85-19.23
		c19.03-23.51,45.91-39.45,75.69-44.87c15-2.73,30.13-2.75,44.96-0.04c5.06,0.88,10.18,2.13,15.21,3.71l4.49,1.41
		c11.29,3.55,21.94,6.91,32.6,9.04c51.13,10.21,107.23,10.31,162.24,0.29c23.81-4.34,46.97-10.48,68.83-18.27l0.16-0.06
		c69.65-24.23,129.36-64.81,168.12-114.27c38.43-49.04,53.76-102.26,44.35-153.94l0,0c-10.82-59.39-53.69-109.78-120.71-141.9
		C994.29,679.52,938.76,667.84,880.39,667.84z"/>
	
		<linearGradient id="SVGID_00000168074784704141405350000000992249014066238140_" gradientUnits="userSpaceOnUse" x1="555.3047" y1="1120.8643" x2="1154.8826" y2="1120.8643">
		<stop  offset="0" style="stop-color:#235761"/>
		<stop  offset="1" style="stop-color:#2E727F"/>
	</linearGradient>
	<path style="fill:url(#SVGID_00000168074784704141405350000000992249014066238140_);" d="M927.3,1334.59
		c-15.63,0-31.51-1.09-47.43-3.31c-18.69-2.47-37.66-6.59-56.38-12.23c-43.35-13.07-83.9-33.96-117.26-60.4
		c-7.84-6.21-14.62-12.9-21.18-19.37l-2.37-2.33c-1.47-1.44-3-2.77-4.57-3.94l-0.18-0.14c-4.74-3.64-10.11-6.38-15.94-8.14
		c-23.58-7.11-49.45,4.17-60.16,26.25l-34.95,72.04l-9.53-79.5c-5-41.71-0.8-86.45,12.16-129.4
		c22.28-73.87,68.02-135.58,125.53-169.35c0.83-0.51,1.56-0.92,2.16-1.25c65.61-39.63,157.44-47.4,245.8-20.75
		c69.43,20.94,129.01,60.49,167.75,111.38c19.38,25.46,32.59,52.46,39.26,80.25c7.09,29.57,6.44,58.63-1.92,86.38
		c-14.14,46.88-49.87,85.62-100.61,109.08C1012.2,1326.16,970.69,1334.59,927.3,1334.59z M706.44,1195.5
		c3.18,2.4,6.26,5.06,9.17,7.92l2.43,2.39c5.93,5.85,11.53,11.37,17.38,16c28.76,22.79,63.91,40.86,101.64,52.24
		c16.34,4.93,32.84,8.51,49.04,10.65l0.17,0.02c104.22,14.52,195.4-26.49,216.82-97.51l0,0c11.92-39.51,1.36-83.76-29.73-124.58
		c-32.79-43.07-83.91-76.75-143.93-94.86c-76.04-22.93-153.92-16.86-208.35,16.24l-1.99,1.15
		c-47.53,27.81-85.65,79.76-104.58,142.54c-5.82,19.3-9.58,38.96-11.24,58.39c1.49-0.75,2.99-1.47,4.52-2.14
		c21.34-9.46,45.4-10.95,67.77-4.21C686.81,1183.12,697.2,1188.43,706.44,1195.5z"/>
</g>
</svg>
