<svg width="899" height="139" viewBox="0 0 899 139" fill="white" style="color: white;" xmlns="http://www.w3.org/2000/svg">
<path d="M173.904 111.531V33.6831H192.256V43.1551H193.292C196.696 37.2351 203.8 31.7591 214.456 31.7591C225.112 31.7591 233.104 36.3471 237.544 43.5991H238.728C244.056 35.4591 251.752 31.7591 261.816 31.7591C278.984 31.7591 290.232 43.4511 290.232 59.8791V111.531H270.992V66.5391C270.992 55.8831 266.108 49.8151 256.932 49.8151C248.2 49.8151 241.836 56.4751 241.836 66.9831V111.531H222.596V65.3551C222.596 55.8831 216.972 49.8151 208.092 49.8151C199.508 49.8151 193.144 56.9191 193.144 66.8351V111.531H173.904Z" fill="currentColor"/>
<path d="M346.464 113.455C322.044 113.455 305.024 95.8431 305.024 72.6071C305.024 49.5191 321.896 31.7591 346.464 31.7591C370.884 31.7591 387.904 49.5191 387.904 72.6071C387.904 95.6951 370.736 113.455 346.464 113.455ZM346.464 95.9911C359.192 95.9911 368.368 86.2231 368.368 72.6071C368.368 59.1391 359.192 49.2231 346.464 49.2231C333.588 49.2231 324.56 59.1391 324.56 72.6071C324.56 86.3711 333.736 95.9911 346.464 95.9911Z" fill="currentColor"/>
<path d="M404.865 111.531V33.6831H423.217V43.1551H424.253C427.657 37.2351 434.761 31.7591 445.417 31.7591C456.073 31.7591 464.065 36.3471 468.505 43.5991H469.689C475.017 35.4591 482.713 31.7591 492.777 31.7591C509.945 31.7591 521.193 43.4511 521.193 59.8791V111.531H501.953V66.5391C501.953 55.8831 497.069 49.8151 487.893 49.8151C479.161 49.8151 472.797 56.4751 472.797 66.9831V111.531H453.557V65.3551C453.557 55.8831 447.933 49.8151 439.053 49.8151C430.469 49.8151 424.105 56.9191 424.105 66.8351V111.531H404.865Z" fill="currentColor"/>
<path d="M575.205 113.455C552.265 113.455 535.984 96.2871 535.984 73.0511C535.984 48.4831 552.413 31.7591 575.205 31.7591C600.217 31.7591 613.833 50.2591 613.833 72.1631V78.2311H554.633C555.224 90.0711 563.365 98.0631 575.797 98.0631C585.268 98.0631 592.521 93.6231 595.185 87.2591H613.093C609.245 103.095 595.333 113.455 575.205 113.455ZM554.929 64.6151H595.481C594.593 54.1071 586.453 47.1511 575.205 47.1511C564.401 47.1511 556.113 54.8471 554.929 64.6151Z" fill="currentColor"/>
<path d="M630.911 111.531V33.6831H649.263V43.1551H650.299C653.407 37.3831 661.104 31.7591 672.203 31.7591C689.667 31.7591 700.323 44.0431 700.323 60.6191V111.531H681.083V65.6511C681.083 56.1791 675.016 49.8151 666.135 49.8151C656.812 49.8151 650.151 57.2151 650.151 66.9831V111.531H630.911Z" fill="currentColor"/>
<path d="M753.687 111.531C737.555 111.531 727.787 102.355 727.787 85.6311V49.0751H714.615V33.8311H723.347C726.751 33.8311 728.971 31.6111 728.971 27.9111V12.2231H747.027V33.6831H768.487V49.0751H747.027V84.8911C747.027 91.4031 750.283 95.5471 757.683 95.5471H768.043V111.531H753.687Z" fill="currentColor"/>
<path d="M794.457 23.3231C787.501 23.3231 782.617 19.0311 782.617 12.0751C782.617 5.4151 787.501 0.975098 794.457 0.975098C801.413 0.975098 806.297 5.4151 806.297 12.0751C806.297 19.0311 801.413 23.3231 794.457 23.3231ZM784.837 111.531V33.6831H804.077V111.531H784.837Z" fill="currentColor"/>
<path d="M859.532 113.455C835.112 113.455 818.832 95.5471 818.832 72.6071C818.832 49.6671 835.112 31.7591 859.532 31.7591C879.512 31.7591 895.052 44.0431 898.012 62.3951H878.328C875.96 54.6991 868.708 49.2231 859.68 49.2231C846.656 49.2231 838.368 59.5831 838.368 72.6071C838.368 86.0751 847.1 95.9911 859.828 95.9911C868.708 95.9911 875.96 90.9591 878.18 83.4111H897.864C894.904 101.467 879.512 113.455 859.532 113.455Z" fill="currentColor"/>
<path d="M101.308 14.8744H54.0352C40.9798 14.8744 30.3989 25.4553 30.3989 38.5106V44.3949H24.5106C11.4553 44.3949 0.874268 54.9759 0.874268 68.0312V102.044C0.874268 106.825 3.7547 111.136 8.1723 112.966C12.59 114.796 17.6749 113.784 21.056 110.403L35.2929 96.1663C39.7263 91.7329 42.217 85.7199 42.217 79.4501V56.2131H71.783C78.3106 56.2131 83.6052 61.5035 83.6052 68.0312V97.6053H60.36C54.0901 97.6053 48.0771 100.096 43.6437 104.529L29.4109 118.762C26.0298 122.143 25.0184 127.228 26.8482 131.646C28.678 136.064 32.9888 138.944 37.7704 138.944H71.783C84.8392 138.944 95.4233 128.36 95.4233 115.304V109.423H101.308C114.363 109.423 124.948 98.8384 124.948 85.7831V38.5106C124.948 25.4553 114.363 14.8744 101.308 14.8744ZM30.3989 79.4537C30.3989 82.5891 29.1533 85.5961 26.9362 87.8132L12.6924 102.057V68.0312C12.6924 61.5035 17.9829 56.2131 24.5106 56.2131H30.3989V79.4537ZM83.6052 115.304C83.6052 121.833 78.3122 127.126 71.783 127.126H37.757L51.9968 112.886C54.2139 110.669 57.2209 109.423 60.3564 109.423H83.6052V115.304ZM113.13 85.7831C113.13 92.3107 107.835 97.6053 101.308 97.6053H95.4233V68.0312C95.4233 54.9759 84.8382 44.3949 71.783 44.3949H42.217V38.5106C42.217 31.983 47.5075 26.6925 54.0352 26.6925H101.308C107.835 26.6925 113.13 31.983 113.13 38.5106V85.7831Z" fill="currentColor"/>
</svg>
